<?xml version="1.0" encoding="iso-8859-1"?>
<!-- Uploaded to: SVG Repo, www.svgrepo.com, Generator: SVG Repo Mixer Tools -->
<svg version="1.1" id="Layer_1" xmlns="http://www.w3.org/2000/svg" xmlns:xlink="http://www.w3.org/1999/xlink" 
	 viewBox="0 0 286.548 286.548" xml:space="preserve">
<g>
	<g>
		<path style="fill:#4EFFBB;" d="M279.075,42.524h-96.461c-4.112,0-7.434,3.435-7.434,7.661v39.512c0,4.226,3.321,7.661,7.434,7.661
			h5.887v84.383l-23.209-28.568c-0.566-0.718-0.905-1.623-0.905-2.565V49.201c0-10.641-8.49-19.283-18.907-19.283h-44.115
			c-10.417,0-18.907,8.642-18.907,19.283v105.138c0,0.943-0.301,1.85-0.905,2.565l-62.345,76.76
			c-4.754,5.811-5.735,13.7-2.565,20.53c3.132,6.868,9.699,11.094,17.097,11.094h176.086c6.415,3.888,13.811,6.152,21.776,6.152
			c23.737,0,43.058-19.812,43.058-44.153V97.356h4.416c4.112,0,7.472-3.435,7.472-7.661V50.182
			C286.55,45.956,283.19,42.524,279.075,42.524z"/>
		<g id="XMLID_14_">
			<g>
				<rect x="175.28" y="43.034" style="fill:#302C58;" width="81.514" height="24.227"/>
				<path style="fill:#302C58;" d="M244.907,198.591v13.887c0,15.661-12.264,28.454-27.473,28.795
					c0.376-0.604,0.718-1.208,1.019-1.885c3.17-6.83,2.189-14.719-2.528-20.53l-27.286-33.55v-8.981
					c10.831,1.208,17.094,5.245,24.114,9.888C220.679,191.42,229.546,197.272,244.907,198.591z"/>
				<path style="fill:#302C58;" d="M204.376,228.632c1.433,1.775,0.832,3.546,0.528,4.264c-0.339,0.68-1.322,2.303-3.549,2.303
					H18.93c-2.227,0-3.208-1.623-3.546-2.303c-0.301-0.718-0.867-2.49,0.566-4.264l43.134-53.136
					c28.871,0.943,44.57,5.811,61.023,10.983c15.661,4.906,31.813,9.926,59.248,11.397L204.376,228.632z"/>
				<path style="fill:#222051;" d="M82.669,34.392c0-2.189,1.737-4.001,3.888-4.001h15.404c4.147,0,7.51-3.362,7.51-7.51v-0.263
					c0-4.147-3.362-7.51-7.51-7.51H86.557c-10.417,0-18.907,8.642-18.907,19.283V90.77c0,4.147,3.362,7.51,7.51,7.51l0,0
					c4.147,0,7.51-3.362,7.51-7.51C82.669,90.771,82.669,34.392,82.669,34.392z"/>
				<path style="fill:#222051;" d="M264.266,27.711h-96.461c-4.115,0-7.434,3.435-7.434,7.661v39.512
					c0,4.226,3.321,7.661,7.434,7.661h5.887v84.383l-23.209-28.568c-0.566-0.718-0.905-1.623-0.905-2.565V34.392
					c0-10.641-8.49-19.283-18.907-19.283h-0.076c-4.22,0-7.641,3.421-7.641,7.641l0,0c0,4.22,3.421,7.641,7.641,7.641h0.076
					c2.151,0,3.926,1.812,3.926,4.001v101.402c0,4.492,1.547,8.867,4.34,12.34l27.059,33.284
					c-17.284-2.037-29.172-5.735-41.512-9.585c-14.529-4.53-29.51-9.208-53.475-11.021l7.285-8.946
					c2.831-3.476,4.378-7.825,4.378-12.308v-20.29c0-4.147-3.362-7.51-7.51-7.51l0,0c-4.147,0-7.51,3.362-7.51,7.51v20.258
					c0,0.943-0.301,1.85-0.905,2.565l-62.345,76.76c-4.754,5.811-5.735,13.7-2.565,20.53c3.132,6.868,9.699,11.094,17.094,11.094
					h176.086c6.415,3.888,13.811,6.152,21.776,6.152c23.737,0,43.061-19.812,43.061-44.153V82.547h4.416
					c4.112,0,7.472-3.435,7.472-7.661V35.373C271.738,31.147,268.378,27.711,264.266,27.711z M204.904,232.897
					c-0.339,0.68-1.322,2.303-3.549,2.303H18.93c-2.227,0-3.208-1.623-3.546-2.303c-0.301-0.718-0.867-2.49,0.566-4.264
					l43.134-53.136c28.871,0.943,44.57,5.811,61.023,10.983c15.661,4.906,31.813,9.926,59.248,11.397l25.021,30.756
					C205.809,230.404,205.205,232.179,204.904,232.897z M244.907,212.478c0,15.661-12.264,28.454-27.473,28.795
					c0.376-0.604,0.718-1.208,1.019-1.885c3.17-6.83,2.189-14.719-2.528-20.53l-27.283-33.55v-8.981
					c10.831,1.208,17.094,5.245,24.114,9.888c7.924,5.207,16.794,11.059,32.154,12.378v13.884L244.907,212.478L244.907,212.478z
					 M244.907,183.195c-10.793-1.208-17.059-5.245-24.079-9.888c-7.962-5.207-16.832-11.059-32.189-12.378V82.547h56.268
					L244.907,183.195L244.907,183.195z M256.794,67.262H175.28V43.034h81.514V67.262z"/>
			</g>
		</g>
	</g>
</g>
</svg>